<svg xmlns="http://www.w3.org/2000/svg" xmlns:xlink="http://www.w3.org/1999/xlink" width="100" height="100" viewBox="0 0 100 100"><g><g transform="translate(50 50) scale(0.69 0.69) rotate(0) translate(-50 -50)" style="fill:#1A1A1A"><svg xmlns:dc="http://purl.org/dc/elements/1.1/" xmlns:cc="http://creativecommons.org/ns#" xmlns:rdf="http://www.w3.org/1999/02/22-rdf-syntax-ns#" xmlns:svg="http://www.w3.org/2000/svg" xmlns="http://www.w3.org/2000/svg" xmlns:sodipodi="http://sodipodi.sourceforge.net/DTD/sodipodi-0.dtd" xmlns:inkscape="http://www.inkscape.org/namespaces/inkscape" fill="#1A1A1A" version="1.1" x="0px" y="0px" viewBox="0 0 100 100"><path style="font-size:medium;font-style:normal;font-variant:normal;font-weight:normal;font-stretch:normal;text-indent:0;text-align:start;text-decoration:none;line-height:normal;letter-spacing:normal;word-spacing:normal;text-transform:none;direction:ltr;block-progression:tb;writing-mode:lr-tb;text-anchor:start;baseline-shift:baseline;opacity:1;color:#000000;fill:#1A1A1A;fill-opacity:1;stroke:none;stroke-width:2;marker:none;visibility:visible;display:inline;overflow:visible;enable-background:accumulate;font-family:Sans;-inkscape-font-specification:Sans" d="M 57.8125 7 A 1.0001 1.0001 0 0 0 57.125 7.5 L 17.125 77.5 A 1.0001 1.0001 0 0 0 17 78 L 17 92 A 1.0001 1.0001 0 0 0 18.40625 92.90625 L 32.40625 86.90625 A 1.0001 1.0001 0 0 0 32.875 86.5 L 72.875 16.5 A 1.0001 1.0001 0 0 0 72.5 15.125 L 58.5 7.125 A 1.0001 1.0001 0 0 0 57.90625 7 A 1.0001 1.0001 0 0 0 57.8125 7 z M 58.375 9.375 L 70.625 16.375 L 64.90625 26.375 L 52.71875 19.25 L 58.375 9.375 z M 51.71875 21 L 63.90625 28.09375 L 31.28125 85.21875 L 19 90.5 L 19 78.28125 L 51.71875 21 z M 43.8125 91 A 1.001098 1.001098 0 0 0 44 93 L 82 93 A 1.0001 1.0001 0 1 0 82 91 L 44 91 A 1.0001 1.0001 0 0 0 43.90625 91 A 1.001098 1.001098 0 0 0 43.8125 91 z "></path></svg></g></g></svg>